<?xml version="1.0" standalone="no"?>
<!DOCTYPE svg PUBLIC "-//W3C//DTD SVG 20010904//EN"
 "http://www.w3.org/TR/2001/REC-SVG-20010904/DTD/svg10.dtd">
<svg version="1.0" xmlns="http://www.w3.org/2000/svg"
 width="300.000000pt" height="300.000000pt" viewBox="0 0 300.000000 300.000000"
 preserveAspectRatio="xMidYMid meet">
<metadata>
Created by potrace 1.11, written by Peter Selinger 2001-2013
</metadata>
<g transform="translate(0.000000,300.000000) scale(0.100000,-0.100000)"
fill="#000000" stroke="none">
<path d="M1986 2440 c-16 -5 -49 -11 -75 -14 -25 -3 -47 -10 -49 -16 -2 -5
-14 -10 -27 -10 -12 0 -28 -7 -35 -15 -7 -8 -20 -15 -30 -15 -10 0 -23 -7 -30
-15 -7 -8 -19 -15 -27 -15 -8 0 -30 -12 -49 -27 -18 -16 -36 -26 -38 -23 -3 3
-15 -5 -29 -18 -24 -23 -65 -26 -79 -7 -4 5 2 25 12 43 37 62 13 53 -27 -11
-17 -28 -28 -37 -30 -27 -12 42 -14 45 -22 32 -5 -9 -16 -4 -39 18 -37 35 -46
38 -37 10 8 -24 -20 -27 -49 -5 -11 8 -29 15 -40 15 -12 0 -40 7 -63 15 -66
23 -273 10 -273 -17 0 -5 9 -6 23 -1 27 10 165 10 191 0 17 -7 17 -9 4 -20 -8
-6 -22 -31 -31 -54 -28 -72 -23 -144 14 -208 26 -43 18 -44 -73 -4 -80 35
-173 47 -182 24 -3 -8 -11 -15 -19 -15 -7 0 -19 -16 -26 -35 -7 -19 -18 -35
-26 -35 -31 0 -74 -52 -101 -123 -37 -96 -68 -143 -104 -162 -16 -9 -30 -21
-31 -28 -3 -44 -34 -87 -64 -87 -7 0 -20 -12 -30 -26 -24 -38 -111 -71 -191
-74 -6 0 -16 -11 -22 -24 -11 -25 -55 -39 -70 -24 -6 6 -7 22 -2 37 8 30 -5
65 -21 56 -5 -4 -9 -21 -9 -38 0 -24 -3 -28 -10 -17 -5 8 -10 27 -10 43 0 22
-4 27 -25 27 -16 0 -25 -6 -25 -15 0 -12 -5 -10 -21 6 -16 16 -23 18 -35 8
-26 -21 -17 -64 21 -96 19 -17 35 -33 35 -37 0 -14 -42 -4 -57 14 -10 11 -23
20 -30 20 -14 0 -17 -38 -5 -57 10 -16 57 -33 91 -33 42 0 55 -21 41 -64 -15
-47 -5 -78 23 -74 18 2 22 10 23 41 1 24 10 47 23 61 12 12 19 25 15 28 -11
12 38 30 63 23 18 -4 47 5 105 35 43 22 111 49 151 60 54 15 79 27 98 50 34
39 41 38 23 -5 -7 -19 -14 -41 -14 -49 0 -15 155 -98 258 -137 34 -13 62 -27
62 -31 0 -23 -144 -148 -210 -184 -43 -23 -81 -51 -90 -67 -13 -24 -13 -29 6
-54 11 -15 54 -44 95 -64 67 -33 121 -78 146 -123 12 -22 52 -26 92 -10 19 8
38 11 42 7 10 -10 23 -83 15 -83 -3 0 -22 10 -42 22 l-37 22 -19 -24 c-19 -24
-19 -24 4 -42 l23 -18 -25 0 c-30 0 -70 25 -70 45 0 11 -31 29 -50 28 -3 0
-15 3 -27 8 -40 15 -54 2 -48 -45 14 -92 83 -166 155 -166 20 0 77 8 126 19
85 17 159 19 232 6 39 -7 71 1 68 18 -4 21 -70 109 -113 151 -28 26 -41 46
-38 57 3 10 -1 19 -10 23 -8 3 -15 1 -15 -4 0 -18 -21 -10 -52 19 -25 24 -29
31 -19 49 8 14 8 29 0 51 -14 39 -40 54 -71 42 -37 -14 -74 -2 -107 35 l-31
34 37 23 c21 13 49 28 63 32 14 4 39 20 56 35 18 15 49 30 73 34 22 3 41 10
41 15 0 17 36 18 85 1 40 -13 50 -22 57 -46 15 -60 126 -95 218 -68 24 7 46
11 48 9 9 -9 -30 -75 -58 -99 -17 -14 -46 -28 -65 -32 -20 -3 -35 -12 -35 -20
0 -15 12 -17 73 -15 l37 1 -15 -36 c-8 -20 -15 -38 -15 -39 0 -2 -8 -1 -19 2
-22 6 -37 -13 -23 -30 6 -7 12 -44 13 -82 3 -89 14 -113 53 -120 38 -8 115 9
166 35 22 11 79 29 127 41 113 27 116 27 130 28 19 1 73 51 89 83 36 69 23 94
-51 105 -39 5 -57 1 -125 -31 -44 -21 -85 -36 -92 -33 -8 2 0 10 17 19 49 26
81 66 69 85 -6 9 -16 19 -22 21 -12 4 -52 -32 -69 -63 -10 -17 -12 -17 -27 -2
-14 13 -21 14 -41 5 -14 -6 -25 -17 -25 -24 0 -21 -19 -26 -36 -9 -9 9 -15 17
-13 18 2 2 26 14 52 27 58 29 63 35 46 66 -11 21 -10 27 10 48 12 12 38 28 59
34 50 15 118 60 130 86 28 62 -33 113 -143 121 -27 2 -53 4 -56 4 -4 1 7 37
23 82 33 88 57 140 59 124 3 -23 5 -31 12 -52 10 -27 20 -29 41 -8 8 8 17 15
19 15 3 0 25 -35 50 -77 25 -43 53 -86 64 -95 18 -17 21 -17 50 5 16 12 50 41
74 65 69 67 166 126 264 163 50 18 96 39 103 48 6 8 12 31 12 52 0 37 24 70
39 53 5 -5 13 -24 20 -43 9 -29 8 -41 -10 -78 -11 -24 -24 -43 -28 -43 -4 0
-13 -11 -19 -24 -9 -21 -7 -27 21 -53 18 -16 40 -39 49 -51 15 -18 22 -20 43
-12 41 15 43 14 56 -47 14 -69 25 -83 69 -89 58 -10 96 3 110 36 10 24 10 33
0 45 -16 19 -56 19 -64 0 -8 -22 -24 -18 -31 6 -5 14 2 40 20 74 20 40 35 57
66 70 61 28 66 41 24 55 -28 9 -35 16 -30 29 4 9 8 21 9 27 1 5 11 25 22 43
l21 32 27 -35 c23 -31 29 -34 46 -24 16 10 40 48 40 63 0 3 -16 5 -35 5 -21 0
-35 5 -35 13 0 21 -15 37 -39 42 -16 3 -29 -6 -51 -37 -16 -22 -32 -47 -35
-57 -7 -22 -41 -42 -59 -35 -18 7 -49 78 -72 164 -10 36 -23 71 -30 79 -18 20
-53 7 -97 -35 l-37 -36 -29 31 c-16 17 -34 31 -40 31 -5 0 -34 -30 -64 -67
-45 -57 -98 -109 -152 -150 -30 -24 -77 -51 -134 -79 l-65 -32 -20 26 c-11 15
-26 33 -33 40 -7 7 -13 17 -13 22 0 5 -6 15 -13 22 -16 16 -57 103 -57 121 0
7 7 22 15 33 24 32 18 63 -15 82 -16 9 -30 20 -30 24 0 14 -69 40 -89 33 -10
-3 -22 -2 -25 3 -3 5 -26 15 -51 22 -52 15 -56 24 -16 44 32 17 94 88 127 145
41 73 58 194 35 254 -9 23 -7 26 17 31 55 12 69 17 152 46 76 27 81 30 45 29
-22 0 -53 -5 -69 -9z m-1852 -970 l7 -25 -15 25 c-17 28 -21 50 -7 35 5 -6 12
-21 15 -35z"/>
</g>
</svg>
